<svg xmlns="http://www.w3.org/2000/svg" width="40" height="24" viewBox="0 0 40 24" fill="none">
<path fill-rule="evenodd" clip-rule="evenodd" d="M31.8477 5.048C31.1682 7.592 30.4807 10.128 29.8172 12.68C29.4814 13.952 29.1536 15.224 28.7699 16.488C28.3942 17.712 27.9385 19.016 27.2749 20.128C26.5794 21.288 25.6761 22.192 24.4289 22.776C23.9333 23.008 23.4216 23.168 22.886 23.28C22.1265 23.44 21.3591 23.504 20.5916 23.552C18.6809 23.656 14.6198 23.64 12.7011 23.64L13.8763 19.288C14.7637 19.288 15.6511 19.288 16.5384 19.264C17.3938 19.24 18.3372 19.192 19.1846 18.992C20.1119 18.776 20.8075 18.4 21.415 17.648C21.9746 16.96 22.3424 16.104 22.6542 15.304C23.2138 13.832 23.7894 11.72 24.1891 10.208C24.6448 8.488 25.0845 6.768 25.5242 5.048H31.8477ZM39.7542 5.048L36.3406 17.704H30.017L33.4306 5.048H39.7542ZM18.8968 0.296H25.2204C24.5568 2.768 23.8933 5.24 23.2298 7.704C22.7661 9.424 22.3024 11.144 21.7908 12.856C21.5669 13.6 21.3511 14.344 21.0553 15.064C20.8234 15.648 20.5596 16.16 20.08 16.592C19.7202 16.92 19.3285 17.12 18.8728 17.264C18.2892 17.448 17.6896 17.52 17.0821 17.568C16.2107 17.64 15.3393 17.656 14.4599 17.672C12.4453 17.704 8.79984 17.696 6.78525 17.688C6.06576 17.688 5.33826 17.68 4.61877 17.664C4.09114 17.656 3.5715 17.64 3.05186 17.608C2.70011 17.584 2.35635 17.56 2.01259 17.496C1.78075 17.456 1.55691 17.392 1.33306 17.296C0.605572 16.976 0.237829 16.344 0.22184 15.576C0.205851 15.136 0.285795 14.712 0.373734 14.288C0.501644 13.688 0.653538 13.088 0.805431 12.496C1.10122 11.36 1.63685 9.256 2.06056 8.152C2.38833 7.288 2.82802 6.424 3.65144 5.872C4.11512 5.568 4.60278 5.4 5.1384 5.296C5.53813 5.216 5.93785 5.176 6.33757 5.144C7.0091 5.096 7.68862 5.08 8.36015 5.064C9.31948 5.048 10.2788 5.04 11.2381 5.04H13.6365H16.0348L15.1794 8.208C13.7564 8.208 12.3334 8.208 10.9104 8.216C10.4947 8.216 10.079 8.216 9.66324 8.24C9.51934 8.248 9.37544 8.256 9.23154 8.312C9.04767 8.376 8.95174 8.496 8.87179 8.664C8.75188 8.912 8.67993 9.176 8.60798 9.432C8.48806 9.832 8.38414 10.232 8.27221 10.632C8.10433 11.248 7.93645 11.872 7.77656 12.488C7.7206 12.72 7.65664 12.944 7.60868 13.184C7.5767 13.344 7.54472 13.512 7.52873 13.672C7.51274 13.856 7.50475 14.072 7.61667 14.24C7.72859 14.408 7.92046 14.448 8.09634 14.48C8.2962 14.512 8.49606 14.512 8.69592 14.52C9.02369 14.528 9.35146 14.528 9.67923 14.536C10.5746 14.544 11.47 14.544 12.3654 14.536C12.7811 14.536 13.1888 14.528 13.6045 14.512C13.8923 14.504 14.1721 14.488 14.4519 14.424C14.6677 14.376 14.8276 14.288 14.9715 14.12C15.0675 14 15.1314 13.872 15.1874 13.736C15.3313 13.392 15.4352 13.032 15.5391 12.68C15.9469 11.312 16.3066 9.936 16.6823 8.56L17.7936 4.432L18.8968 0.296Z" fill="#FFF"/>
</svg>