<svg width="43" height="32" viewBox="0 0 43 32" fill="none" xmlns="http://www.w3.org/2000/svg">
<path fill-rule="evenodd" clip-rule="evenodd" d="M29.2169 11.3653C28.7639 13.0613 28.3056 14.7519 27.8632 16.4533C27.6394 17.3013 27.4208 18.1493 27.165 18.9919C26.9145 19.8079 26.6107 20.6773 26.1684 21.4186C25.7047 22.1919 25.1025 22.7946 24.271 23.1839C23.9406 23.3386 23.5995 23.4453 23.2424 23.5199C22.7361 23.6266 22.2245 23.6693 21.7128 23.7013C20.439 23.7706 17.7316 23.7599 16.4525 23.7599L17.236 20.8586C17.8275 20.8586 18.4191 20.8586 19.0107 20.8426C19.581 20.8266 20.2099 20.7946 20.7748 20.6613C21.393 20.5173 21.8567 20.2666 22.2618 19.7653C22.6348 19.3066 22.88 18.7359 23.0879 18.2026C23.4609 17.2213 23.8447 15.8133 24.1111 14.8053C24.4149 13.6586 24.7081 12.5119 25.0012 11.3653H29.2169ZM34.4879 11.3653L32.2122 19.8026H27.9964L30.2722 11.3653H34.4879ZM20.5829 8.19727H24.7987C24.3563 9.84527 23.914 11.4933 23.4716 13.1359C23.1625 14.2826 22.8534 15.4293 22.5123 16.5706C22.363 17.0666 22.2191 17.5626 22.0219 18.0426C21.8674 18.4319 21.6915 18.7733 21.3717 19.0613C21.1319 19.2799 20.8707 19.4133 20.567 19.5093C20.1779 19.6319 19.7782 19.6799 19.3731 19.7119C18.7922 19.7599 18.2113 19.7706 17.625 19.7813C16.282 19.8026 13.8517 19.7973 12.5086 19.7919C12.0289 19.7919 11.5439 19.7866 11.0643 19.7759C10.7125 19.7706 10.3661 19.7599 10.0197 19.7386C9.78516 19.7226 9.55599 19.7066 9.32682 19.6639C9.17226 19.6373 9.02303 19.5946 8.8738 19.5306C8.3888 19.3173 8.14364 18.8959 8.13298 18.3839C8.12232 18.0906 8.17562 17.8079 8.23425 17.5253C8.31952 17.1253 8.42078 16.7253 8.52204 16.3306C8.71924 15.5733 9.07632 14.1706 9.35879 13.4346C9.57731 12.8586 9.87044 12.2826 10.4194 11.9146C10.7285 11.7119 11.0536 11.5999 11.4107 11.5306C11.6772 11.4773 11.9437 11.4506 12.2101 11.4293C12.6578 11.3973 13.1108 11.3866 13.5585 11.3759C14.1981 11.3653 14.8376 11.3599 15.4772 11.3599H17.0761H18.6749L18.1047 13.4719C17.156 13.4719 16.2073 13.4719 15.2587 13.4773C14.9815 13.4773 14.7044 13.4773 14.4273 13.4933C14.3313 13.4986 14.2354 13.5039 14.1395 13.5413C14.0169 13.5839 13.9529 13.6639 13.8996 13.7759C13.8197 13.9413 13.7717 14.1173 13.7237 14.2879C13.6438 14.5546 13.5745 14.8213 13.4999 15.0879C13.388 15.4986 13.2761 15.9146 13.1695 16.3253C13.1322 16.4799 13.0895 16.6293 13.0575 16.7893C13.0362 16.8959 13.0149 17.0079 13.0042 17.1146C12.9936 17.2373 12.9883 17.3813 13.0629 17.4933C13.1375 17.6053 13.2654 17.6319 13.3826 17.6533C13.5159 17.6746 13.6491 17.6746 13.7824 17.6799C14.0009 17.6853 14.2194 17.6853 14.4379 17.6906C15.0348 17.6959 15.6317 17.6959 16.2287 17.6906C16.5058 17.6906 16.7776 17.6853 17.0547 17.6746C17.2466 17.6693 17.4332 17.6586 17.6197 17.6159C17.7636 17.5839 17.8702 17.5253 17.9661 17.4133C18.0301 17.3333 18.0727 17.2479 18.11 17.1573C18.2059 16.9279 18.2752 16.6879 18.3445 16.4533C18.6163 15.5413 18.8562 14.6239 19.1066 13.7066L19.8475 10.9546L20.5829 8.19727Z" fill="#1F2937"/>
</svg>
